<mxfile host="Electron" modified="2024-05-20T11:37:29.568Z" agent="Mozilla/5.0 (X11; Linux x86_64) AppleWebKit/537.36 (KHTML, like Gecko) draw.io/24.4.0 Chrome/120.0.6099.109 Electron/28.1.0 Safari/537.36" etag="-j4fCc6w6bTjfveorpjv" version="24.4.0" type="device">
  <diagram name="Page-1" id="o8IaR38V3qPhSs0lsbf8">
    <mxGraphModel dx="941" dy="581" grid="1" gridSize="10" guides="1" tooltips="1" connect="1" arrows="1" fold="1" page="1" pageScale="1" pageWidth="827" pageHeight="583" math="0" shadow="0">
      <root>
        <mxCell id="0" />
        <mxCell id="1" parent="0" />
        <mxCell id="QuL_5hhNDOjUeJQe1cB8-1" value="&lt;span style=&quot;font-size: 18px;&quot;&gt;UART hardware driver and string parser structure&lt;/span&gt;" style="text;html=1;align=center;verticalAlign=middle;whiteSpace=wrap;rounded=0;" vertex="1" parent="1">
          <mxGeometry x="20" y="10" width="410" height="30" as="geometry" />
        </mxCell>
        <mxCell id="QuL_5hhNDOjUeJQe1cB8-7" value="&lt;font style=&quot;font-size: 16px;&quot;&gt;Main loop&lt;/font&gt;" style="swimlane;whiteSpace=wrap;html=1;" vertex="1" parent="1">
          <mxGeometry x="530" y="160" width="150" height="176.5" as="geometry" />
        </mxCell>
        <mxCell id="QuL_5hhNDOjUeJQe1cB8-2" value="Send telemetry" style="rounded=1;whiteSpace=wrap;html=1;fillColor=#dae8fc;strokeColor=#6c8ebf;fontSize=16;" vertex="1" parent="QuL_5hhNDOjUeJQe1cB8-7">
          <mxGeometry x="15" y="30" width="120" height="60" as="geometry" />
        </mxCell>
        <mxCell id="QuL_5hhNDOjUeJQe1cB8-47" value="Joint controllers, CAN etc" style="rounded=1;whiteSpace=wrap;html=1;fillColor=#dae8fc;strokeColor=#6c8ebf;fontSize=16;" vertex="1" parent="QuL_5hhNDOjUeJQe1cB8-7">
          <mxGeometry x="15" y="106.5" width="120" height="60" as="geometry" />
        </mxCell>
        <mxCell id="QuL_5hhNDOjUeJQe1cB8-56" style="edgeStyle=orthogonalEdgeStyle;rounded=0;orthogonalLoop=1;jettySize=auto;html=1;exitX=1;exitY=0.5;exitDx=0;exitDy=0;entryX=0;entryY=0.5;entryDx=0;entryDy=0;" edge="1" parent="1" source="QuL_5hhNDOjUeJQe1cB8-8" target="QuL_5hhNDOjUeJQe1cB8-47">
          <mxGeometry relative="1" as="geometry">
            <Array as="points">
              <mxPoint x="510" y="210" />
              <mxPoint x="510" y="297" />
            </Array>
          </mxGeometry>
        </mxCell>
        <mxCell id="QuL_5hhNDOjUeJQe1cB8-8" value="UART parse HMI" style="rounded=1;whiteSpace=wrap;html=1;fillColor=#dae8fc;strokeColor=#6c8ebf;fontSize=16;" vertex="1" parent="1">
          <mxGeometry x="350" y="180" width="120" height="60" as="geometry" />
        </mxCell>
        <mxCell id="QuL_5hhNDOjUeJQe1cB8-57" style="edgeStyle=orthogonalEdgeStyle;rounded=0;orthogonalLoop=1;jettySize=auto;html=1;exitX=1;exitY=0.5;exitDx=0;exitDy=0;entryX=0;entryY=0.5;entryDx=0;entryDy=0;" edge="1" parent="1" source="QuL_5hhNDOjUeJQe1cB8-9" target="QuL_5hhNDOjUeJQe1cB8-47">
          <mxGeometry relative="1" as="geometry">
            <Array as="points">
              <mxPoint x="510" y="307" />
              <mxPoint x="510" y="297" />
            </Array>
          </mxGeometry>
        </mxCell>
        <mxCell id="QuL_5hhNDOjUeJQe1cB8-9" value="UART parse ROS" style="rounded=1;whiteSpace=wrap;html=1;fillColor=#dae8fc;strokeColor=#6c8ebf;fontSize=16;" vertex="1" parent="1">
          <mxGeometry x="380" y="276.5" width="120" height="60" as="geometry" />
        </mxCell>
        <mxCell id="QuL_5hhNDOjUeJQe1cB8-55" style="edgeStyle=orthogonalEdgeStyle;rounded=0;orthogonalLoop=1;jettySize=auto;html=1;exitX=1;exitY=0.5;exitDx=0;exitDy=0;" edge="1" parent="1" source="QuL_5hhNDOjUeJQe1cB8-13" target="QuL_5hhNDOjUeJQe1cB8-15">
          <mxGeometry relative="1" as="geometry" />
        </mxCell>
        <mxCell id="QuL_5hhNDOjUeJQe1cB8-13" value="UART Rx callback&lt;div&gt;[HAL]&lt;/div&gt;" style="rounded=1;whiteSpace=wrap;html=1;fillColor=#dae8fc;strokeColor=#6c8ebf;fontSize=16;" vertex="1" parent="1">
          <mxGeometry x="10" y="228.25" width="120" height="60" as="geometry" />
        </mxCell>
        <mxCell id="QuL_5hhNDOjUeJQe1cB8-52" style="edgeStyle=orthogonalEdgeStyle;rounded=0;orthogonalLoop=1;jettySize=auto;html=1;exitX=1;exitY=0.5;exitDx=0;exitDy=0;entryX=0;entryY=0.5;entryDx=0;entryDy=0;" edge="1" parent="1" source="QuL_5hhNDOjUeJQe1cB8-15" target="QuL_5hhNDOjUeJQe1cB8-8">
          <mxGeometry relative="1" as="geometry">
            <Array as="points">
              <mxPoint x="340" y="258" />
              <mxPoint x="340" y="210" />
            </Array>
          </mxGeometry>
        </mxCell>
        <mxCell id="QuL_5hhNDOjUeJQe1cB8-53" style="edgeStyle=orthogonalEdgeStyle;rounded=0;orthogonalLoop=1;jettySize=auto;html=1;entryX=0;entryY=0.5;entryDx=0;entryDy=0;" edge="1" parent="1" source="QuL_5hhNDOjUeJQe1cB8-15" target="QuL_5hhNDOjUeJQe1cB8-9">
          <mxGeometry relative="1" as="geometry" />
        </mxCell>
        <mxCell id="QuL_5hhNDOjUeJQe1cB8-15" value="Prep. statement&lt;div&gt;XOR&lt;/div&gt;" style="rhombus;whiteSpace=wrap;html=1;fillColor=#d5e8d4;strokeColor=#82b366;fontSize=16;" vertex="1" parent="1">
          <mxGeometry x="200" y="208.25" width="100" height="100" as="geometry" />
        </mxCell>
        <mxCell id="QuL_5hhNDOjUeJQe1cB8-23" value="UART transmit&lt;div&gt;[HAL]&lt;/div&gt;" style="rounded=1;whiteSpace=wrap;html=1;fillColor=#dae8fc;strokeColor=#6c8ebf;fontSize=16;" vertex="1" parent="1">
          <mxGeometry x="700" y="190" width="120" height="60" as="geometry" />
        </mxCell>
        <mxCell id="QuL_5hhNDOjUeJQe1cB8-24" value="" style="edgeStyle=orthogonalEdgeStyle;rounded=0;orthogonalLoop=1;jettySize=auto;html=1;" edge="1" parent="1" source="QuL_5hhNDOjUeJQe1cB8-2" target="QuL_5hhNDOjUeJQe1cB8-23">
          <mxGeometry relative="1" as="geometry" />
        </mxCell>
        <mxCell id="QuL_5hhNDOjUeJQe1cB8-27" style="edgeStyle=orthogonalEdgeStyle;rounded=0;orthogonalLoop=1;jettySize=auto;html=1;exitX=1;exitY=0.5;exitDx=0;exitDy=0;" edge="1" parent="1" source="QuL_5hhNDOjUeJQe1cB8-25" target="QuL_5hhNDOjUeJQe1cB8-23">
          <mxGeometry relative="1" as="geometry" />
        </mxCell>
        <mxCell id="QuL_5hhNDOjUeJQe1cB8-25" value="UART readback" style="rounded=1;whiteSpace=wrap;html=1;fillColor=#dae8fc;strokeColor=#6c8ebf;fontSize=16;" vertex="1" parent="1">
          <mxGeometry x="545" y="60" width="120" height="60" as="geometry" />
        </mxCell>
        <mxCell id="QuL_5hhNDOjUeJQe1cB8-58" style="edgeStyle=orthogonalEdgeStyle;rounded=0;orthogonalLoop=1;jettySize=auto;html=1;exitX=0.5;exitY=1;exitDx=0;exitDy=0;entryX=0.5;entryY=0;entryDx=0;entryDy=0;" edge="1" parent="1" source="QuL_5hhNDOjUeJQe1cB8-28" target="QuL_5hhNDOjUeJQe1cB8-8">
          <mxGeometry relative="1" as="geometry" />
        </mxCell>
        <mxCell id="QuL_5hhNDOjUeJQe1cB8-59" style="edgeStyle=orthogonalEdgeStyle;rounded=0;orthogonalLoop=1;jettySize=auto;html=1;exitX=0.5;exitY=1;exitDx=0;exitDy=0;entryX=0.75;entryY=0;entryDx=0;entryDy=0;jumpStyle=arc;jumpSize=10;" edge="1" parent="1">
          <mxGeometry relative="1" as="geometry">
            <mxPoint x="419.99" y="120" as="sourcePoint" />
            <mxPoint x="469.99" y="276.5" as="targetPoint" />
            <Array as="points">
              <mxPoint x="420" y="150" />
              <mxPoint x="480" y="150" />
              <mxPoint x="480" y="250" />
              <mxPoint x="470" y="250" />
            </Array>
          </mxGeometry>
        </mxCell>
        <mxCell id="QuL_5hhNDOjUeJQe1cB8-28" value="String cmd parser" style="rounded=1;whiteSpace=wrap;html=1;fillColor=#dae8fc;strokeColor=#6c8ebf;fontSize=16;" vertex="1" parent="1">
          <mxGeometry x="360" y="60" width="120" height="60" as="geometry" />
        </mxCell>
        <mxCell id="QuL_5hhNDOjUeJQe1cB8-38" value="" style="group" vertex="1" connectable="0" parent="1">
          <mxGeometry x="170" y="60" width="140" height="80" as="geometry" />
        </mxCell>
        <mxCell id="QuL_5hhNDOjUeJQe1cB8-29" value="" style="rounded=1;whiteSpace=wrap;html=1;fillColor=#f8cecc;strokeColor=#b85450;fontSize=16;" vertex="1" parent="QuL_5hhNDOjUeJQe1cB8-38">
          <mxGeometry width="120" height="60" as="geometry" />
        </mxCell>
        <mxCell id="QuL_5hhNDOjUeJQe1cB8-36" value="" style="rounded=1;whiteSpace=wrap;html=1;fillColor=#f8cecc;strokeColor=#b85450;fontSize=16;" vertex="1" parent="QuL_5hhNDOjUeJQe1cB8-38">
          <mxGeometry x="10" y="10" width="120" height="60" as="geometry" />
        </mxCell>
        <mxCell id="QuL_5hhNDOjUeJQe1cB8-37" value="String cmds" style="rounded=1;whiteSpace=wrap;html=1;fillColor=#f8cecc;strokeColor=#b85450;fontSize=16;" vertex="1" parent="QuL_5hhNDOjUeJQe1cB8-38">
          <mxGeometry x="20" y="20" width="120" height="60" as="geometry" />
        </mxCell>
        <mxCell id="QuL_5hhNDOjUeJQe1cB8-49" style="edgeStyle=orthogonalEdgeStyle;rounded=0;orthogonalLoop=1;jettySize=auto;html=1;exitX=1;exitY=0.5;exitDx=0;exitDy=0;entryX=0;entryY=0.5;entryDx=0;entryDy=0;dashed=1;" edge="1" parent="1" source="QuL_5hhNDOjUeJQe1cB8-39" target="QuL_5hhNDOjUeJQe1cB8-29">
          <mxGeometry relative="1" as="geometry" />
        </mxCell>
        <mxCell id="QuL_5hhNDOjUeJQe1cB8-39" value="Keyword/function pair" style="rounded=1;whiteSpace=wrap;html=1;fillColor=#fff2cc;strokeColor=#d6b656;fontSize=16;" vertex="1" parent="1">
          <mxGeometry x="10" y="60" width="120" height="60" as="geometry" />
        </mxCell>
        <mxCell id="QuL_5hhNDOjUeJQe1cB8-43" style="edgeStyle=orthogonalEdgeStyle;rounded=0;orthogonalLoop=1;jettySize=auto;html=1;exitX=1;exitY=0.5;exitDx=0;exitDy=0;" edge="1" parent="1" source="QuL_5hhNDOjUeJQe1cB8-37" target="QuL_5hhNDOjUeJQe1cB8-28">
          <mxGeometry relative="1" as="geometry" />
        </mxCell>
      </root>
    </mxGraphModel>
  </diagram>
</mxfile>
